<?xml version="1.0" standalone="no"?>
<!DOCTYPE svg PUBLIC "-//W3C//DTD SVG 20010904//EN"
 "http://www.w3.org/TR/2001/REC-SVG-20010904/DTD/svg10.dtd">
<svg version="1.0" xmlns="http://www.w3.org/2000/svg"
 width="417.000000pt" height="417.000000pt" viewBox="0 0 417.000000 417.000000"
 preserveAspectRatio="xMidYMid meet">
<metadata>
Created by potrace 1.15, written by Peter Selinger 2001-2017
</metadata>
<g transform="translate(0.000000,417.000000) scale(0.100000,-0.100000)"
fill="#000000" stroke="none">
<path d="M1846 3564 c-392 -78 -710 -368 -820 -748 -89 -305 -42 -630 128
-890 127 -196 319 -350 528 -424 58 -20 76 -31 73 -42 -58 -184 -245 -824
-241 -827 3 -3 55 29 117 71 61 43 112 76 114 74 2 -2 24 -54 50 -116 26 -61
50 -112 54 -112 3 0 62 189 131 420 69 231 127 420 130 420 3 0 75 -183 161
-406 85 -223 160 -406 165 -406 5 -1 27 50 49 114 l40 114 120 -72 c66 -40
122 -71 124 -69 1 2 -67 185 -152 407 -86 222 -159 410 -162 419 -5 13 9 24
59 47 161 76 343 231 435 372 277 426 231 975 -113 1338 -159 167 -354 274
-579 317 -98 19 -316 18 -411 -1z m434 -154 c340 -86 614 -370 684 -713 21
-98 21 -276 0 -375 -70 -340 -349 -630 -686 -712 -325 -79 -665 20 -892 260
-82 88 -118 141 -171 253 -68 146 -80 206 -80 392 0 171 7 210 62 345 124 303
402 519 738 574 68 10 262 -2 345 -24z"/>
<path d="M1968 2856 c-59 -119 -88 -166 -103 -170 -11 -2 -95 -15 -188 -27
l-168 -23 136 -136 136 -137 -31 -177 c-17 -98 -29 -181 -26 -184 5 -5 135 60
276 137 l55 30 80 -43 c188 -101 245 -129 250 -124 4 3 -8 86 -25 184 l-31
178 135 135 c75 74 135 135 133 136 -1 1 -84 13 -185 27 -101 15 -185 28 -187
30 -1 1 -39 76 -84 166 -45 89 -83 162 -86 162 -3 0 -42 -74 -87 -164z"/>
</g>
</svg>
