<?xml version="1.0" standalone="no"?>
<!DOCTYPE svg PUBLIC "-//W3C//DTD SVG 20010904//EN"
 "http://www.w3.org/TR/2001/REC-SVG-20010904/DTD/svg10.dtd">
<svg version="1.0" xmlns="http://www.w3.org/2000/svg"
 width="225.000000pt" height="225.000000pt" viewBox="0 0 225.000000 225.000000"
 preserveAspectRatio="xMidYMid meet">
<metadata>
Created by potrace 1.15, written by Peter Selinger 2001-2017
</metadata>
<g transform="translate(0.000000,225.000000) scale(0.100000,-0.100000)"
fill="#000000" stroke="none">
<path d="M1297 1840 c-199 -25 -331 -65 -499 -152 -195 -101 -360 -244 -508
-443 -66 -89 -157 -242 -148 -250 3 -3 19 14 36 38 17 23 60 74 96 112 l66 70
-59 -115 c-32 -63 -70 -146 -85 -185 -14 -38 -47 -97 -71 -130 l-46 -60 26
-22 c14 -13 39 -23 55 -23 47 0 77 37 114 135 51 140 109 254 187 370 39 59
73 105 75 102 2 -2 0 -36 -5 -75 -35 -280 147 -545 425 -617 75 -19 210 -19
287 1 318 82 504 415 403 718 -29 87 -60 139 -118 202 -24 26 -35 44 -26 44
26 0 184 -57 272 -98 83 -39 86 -42 86 -74 -1 -81 -59 -284 -112 -393 -51
-103 -135 -220 -211 -295 -133 -132 -290 -187 -603 -211 -82 -6 -212 -9 -289
-6 -159 7 -163 -5 -7 -22 228 -24 498 -9 680 40 229 61 423 239 544 499 43 91
93 243 109 332 12 64 13 66 65 97 140 83 145 108 37 158 -90 42 -348 128 -413
138 -83 13 -71 21 62 39 73 11 137 22 142 26 9 9 -58 24 -171 40 -107 15 -318
20 -396 10z m134 -264 c60 -10 146 -114 195 -236 32 -79 43 -224 24 -313 -51
-249 -288 -437 -550 -437 -158 0 -287 55 -400 169 -114 115 -160 224 -161 382
-1 120 13 164 69 222 25 26 49 47 52 47 4 0 -6 -26 -21 -57 -35 -73 -49 -135
-49 -221 1 -89 14 -142 56 -227 156 -314 581 -380 831 -129 155 155 195 385
100 577 -45 90 -84 138 -161 195 -34 24 -52 42 -41 39 11 -3 36 -8 56 -11z
m-85 -182 c32 -21 54 -64 54 -105 0 -37 -51 -94 -94 -105 -74 -18 -146 41
-146 120 0 31 7 45 36 72 29 28 43 34 80 34 25 0 56 -7 70 -16z"/>
</g>
</svg>
